<svg width="40" height="40" viewBox="0 0 40 40" fill="none" xmlns="http://www.w3.org/2000/svg">
<path d="M35.6245 20C35.6245 20.4973 35.427 20.9742 35.0753 21.3258C34.7237 21.6774 34.2468 21.875 33.7495 21.875H10.7808L18.8308 29.9234C19.183 30.2757 19.3809 30.7534 19.3809 31.2515C19.3809 31.7497 19.183 32.2274 18.8308 32.5797C18.4785 32.9319 18.0008 33.1298 17.5026 33.1298C17.0045 33.1298 16.5268 32.9319 16.1745 32.5797L4.92453 21.3297C4.74973 21.1555 4.61103 20.9485 4.5164 20.7206C4.42176 20.4927 4.37305 20.2483 4.37305 20.0015C4.37305 19.7548 4.42176 19.5104 4.5164 19.2825C4.61103 19.0546 4.74973 18.8476 4.92453 18.6734L16.1745 7.42342C16.3489 7.24901 16.556 7.11066 16.7839 7.01626C17.0118 6.92187 17.256 6.87329 17.5026 6.87329C17.7493 6.87329 17.9935 6.92187 18.2214 7.01626C18.4493 7.11066 18.6564 7.24901 18.8308 7.42342C19.0052 7.59783 19.1435 7.80489 19.2379 8.03277C19.3323 8.26065 19.3809 8.50489 19.3809 8.75154C19.3809 8.9982 19.3323 9.24244 19.2379 9.47032C19.1435 9.6982 19.0052 9.90526 18.8308 10.0797L10.7808 18.125H33.7495C34.2468 18.125 34.7237 18.3225 35.0753 18.6742C35.427 19.0258 35.6245 19.5027 35.6245 20Z" fill="black"/>
</svg>
